<svg xmlns="http://www.w3.org/2000/svg"> 
  <defs>
    <symbol id="imageFile" viewBox="0 0 419.2 419.2">
            <circle cx="158" cy="144.4" r="28.8"/>
            <path d="M394.4 250.4c-13.6-12.8-30.8-21.2-49.6-23.6V80.4c0-15.6-6.4-29.6-16.4-40C318 30 304 24 288.4 24h-232c-15.6 0-29.6 6.4-40 16.4C6 50.8 0 64.8 0 80.4v238.8c0 15.6 6.4 29.6 16.4 40 10.4 10.4 24.4 16.4 40 16.4h224.4c14.8 12 33.2 19.6 53.6 19.6 23.6 0 44.8-9.6 60-24.8 15.2-15.2 24.8-36.4 24.8-60s-9.6-44.8-24.8-60zM21.2 80.4c0-9.6 4-18.4 10.4-24.8 6.4-6.4 15.2-10.4 24.8-10.4h232c9.6 0 18.4 4 24.8 10.4 6.4 6.4 10.4 15.2 10.4 24.8v124.8l-59.2-58.8c-4-4-10.8-4.4-15.2 0L160 236l-60.4-60.8c-4-4-10.8-4.4-15.2 0l-63.2 64V80.4zM56 354.8v-.4c-9.6 0-18.4-4-24.8-10.4-6-6.4-10-15.2-10-24.8v-50L92.4 198l60.4 60.4c4 4 10.8 4 15.2 0l89.2-89.6 58.4 58.8-3.6 1.2c-1.6.4-3.2.8-5.2 1.6-1.6.4-3.2 1.2-4.8 1.6-1.2.4-2 .8-3.2 1.6-1.6.8-2.8 1.2-4 2l-6 3.6c-1.2.8-2 1.2-3.2 2-.8.4-1.2.8-2 1.2-3.6 2.4-6.8 5.2-9.6 8.4-15.2 15.2-24.8 36.4-24.8 60 0 6 .8 11.6 2 17.6.4 1.6.8 2.8 1.2 4.4 1.2 4 2.4 8 4 12v.4c1.6 3.2 3.2 6.8 5.2 9.6H56zm322.8.4c-11.6 11.6-27.2 18.4-44.8 18.4-16.8 0-32.4-6.8-43.6-17.6-1.6-1.6-3.2-3.6-4.8-5.2-1.2-1.2-2.4-2.8-3.6-4-1.6-2-2.8-4.4-4-6.8-.8-1.6-1.6-2.8-2.4-4.4-.8-2-1.6-4.4-2-6.8-.4-1.6-1.2-3.6-1.6-5.2-.8-4-1.2-8.4-1.2-12.8 0-17.6 7.2-33.2 18.4-44.8 11.6-11.6 27.2-18.4 44.8-18.4 17.6 0 33.2 7.2 44.8 18.4 11.6 11.2 18.4 27.2 18.4 44.8 0 17.2-7.2 32.8-18.4 44.4z"/>
            <path d="M368.8 299.6h-24.4v-24.4c0-6-4.8-10.8-10.8-10.8s-10.8 4.8-10.8 10.8v24.4h-24.4c-6 0-10.8 4.8-10.8 10.8s4.8 10.8 10.8 10.8h24.4v24.4c0 6 4.8 10.8 10.8 10.8s10.8-4.8 10.8-10.8v-24.4h24.4c6 0 10.8-4.8 10.8-10.8s-4.8-10.8-10.8-10.8z"/>
    </symbol>

    <symbol id="cancel" viewBox="0 0 512.001 512.001">
        <path d="M284.286 256.002L506.143 34.144c7.811-7.811 7.811-20.475 0-28.285-7.811-7.81-20.475-7.811-28.285 0L256 227.717 34.143 5.859c-7.811-7.811-20.475-7.811-28.285 0-7.81 7.811-7.811 20.475 0 28.285l221.857 221.857L5.858 477.859c-7.811 7.811-7.811 20.475 0 28.285 3.905 3.905 9.024 5.857 14.143 5.857 5.119 0 10.237-1.952 14.143-5.857L256 284.287l221.857 221.857c3.905 3.905 9.024 5.857 14.143 5.857s10.237-1.952 14.143-5.857c7.811-7.811 7.811-20.475 0-28.285L284.286 256.002z"/>
    </symbol> 

    <symbol id="alert" viewBox="0 0 512.07 512.07">
      <path d="M256.035 320.004c-8.837 0-16-7.164-16-16v-112c0-8.836 7.163-16 16-16s16 7.164 16 16v112c0 8.837-7.163 16-16 16z"/>
      <path d="M505.296 400.334l-199.19-331.98c-22.6-37.681-77.496-37.754-100.14 0L6.775 400.334c-18.837 31.395 3.826 71.67 40.58 71.67h417.36c36.76 0 59.414-40.28 40.581-71.67zm-40.581 39.67H47.356c-11.922 0-19.232-13.07-13.14-23.21l199.19-331.98c10.219-17.033 35.028-17.053 45.26 0l199.19 331.98c6.085 10.129-1.208 23.21-13.141 23.21z"/>
      <circle cx="256.035" cy="360.004" r="24"/>
    </symbol>
    
    <symbol id="check" viewBox="0 0 512 512">
      <path d="M497.36 69.995c-7.532-7.545-19.753-7.558-27.285-.032L238.582 300.845l-83.522-90.713c-7.217-7.834-19.419-8.342-27.266-1.126-7.841 7.217-8.343 19.425-1.126 27.266l97.126 105.481a19.2729 19.2729 0 0013.784 6.22c.141.006.277.006.412.006 5.101 0 10.008-2.026 13.623-5.628L497.322 97.286c7.551-7.525 7.564-19.746.038-27.291z"/>
      <path d="M492.703 236.703c-10.658 0-19.296 8.638-19.296 19.297 0 119.883-97.524 217.407-217.407 217.407-119.876 0-217.407-97.524-217.407-217.407 0-119.876 97.531-217.407 217.407-217.407 10.658 0 19.297-8.638 19.297-19.296C275.297 8.638 266.658 0 256 0 114.84 0 0 114.84 0 256c0 141.154 114.84 256 256 256 141.154 0 256-114.846 256-256 0-10.658-8.638-19.297-19.297-19.297z"/>
    </symbol>

    <symbol id="menu" viewBox="0 0 24 24">
        <path d="M5 0H1C.448 0 0 .448 0 1v4c0 .552.448 1 1 1h4c.552 0 1-.448 1-1V1c0-.552-.448-1-1-1zM5 9H1c-.552 0-1 .448-1 1v4c0 .552.448 1 1 1h4c.552 0 1-.448 1-1v-4c0-.552-.448-1-1-1zM5 18H1c-.552 0-1 .448-1 1v4c0 .552.448 1 1 1h4c.552 0 1-.448 1-1v-4c0-.552-.448-1-1-1zM14 0h-4c-.552 0-1 .448-1 1v4c0 .552.448 1 1 1h4c.552 0 1-.448 1-1V1c0-.552-.448-1-1-1zM14 9h-4c-.552 0-1 .448-1 1v4c0 .552.448 1 1 1h4c.552 0 1-.448 1-1v-4c0-.552-.448-1-1-1zM14 18h-4c-.552 0-1 .448-1 1v4c0 .552.448 1 1 1h4c.552 0 1-.448 1-1v-4c0-.552-.448-1-1-1zM23 0h-4c-.552 0-1 .448-1 1v4c0 .552.448 1 1 1h4c.552 0 1-.448 1-1V1c0-.552-.448-1-1-1zM23 9h-4c-.552 0-1 .448-1 1v4c0 .552.448 1 1 1h4c.552 0 1-.448 1-1v-4c0-.552-.448-1-1-1zM23 18h-4c-.552 0-1 .448-1 1v4c0 .552.448 1 1 1h4c.552 0 1-.448 1-1v-4c0-.552-.448-1-1-1z"/>
    </symbol> 

    <symbol id="arrow-down" viewBox="0 0 487 487">
      <path d="M89.3 110.9c-20.4-20.4-53.6-20.4-74 0s-20.4 53.6 0 74l191.2 191.2c20.4 20.4 53.6 20.4 74 0l191.2-191.2c20.4-20.4 20.4-53.6 0-74s-53.6-20.4-74 0L243.5 265.1 89.3 110.9z"/>
    </symbol> 

    <symbol id="padlock" viewBox="0 0 24 24">
      <path d="M18.75 9H18V6c0-3.309-2.691-6-6-6S6 2.691 6 6v3h-.75C4.01 9 3 10.009 3 11.25v10.5C3 22.991 4.01 24 5.25 24h13.5c1.24 0 2.25-1.009 2.25-2.25v-10.5C21 10.009 19.99 9 18.75 9zM8 6c0-2.206 1.794-4 4-4s4 1.794 4 4v3H8zm5 10.722V19c0 .552-.447 1-1 1s-1-.448-1-1v-2.278c-.595-.347-1-.985-1-1.722 0-1.103.897-2 2-2s2 .897 2 2c0 .737-.405 1.375-1 1.722z"/>
    </symbol>  

    <symbol id="plus"  viewBox="0 0 512 512">
      <path d="M492 236H276V20c0-11.046-8.954-20-20-20s-20 8.954-20 20v216H20c-11.046 0-20 8.954-20 20s8.954 20 20 20h216v216c0 11.046 8.954 20 20 20s20-8.954 20-20V276h216c11.046 0 20-8.954 20-20s-8.954-20-20-20z"/>
    </symbol>

    <symbol id="ellipsis" viewBox="0 0 426.667 426.667">
      <circle cx="42.667" cy="213.333" r="42.667"/>
      <circle cx="213.333" cy="213.333" r="42.667"/>
      <circle cx="384" cy="213.333" r="42.667"/>
    </symbol>

    <symbol id="clip" viewBox="0 0 512 512">
      <path d="M226 512c-49.626 0-90-40.374-90-90V120C136 53.832 189.832 0 256 0s120 53.832 120 120v302h-30V120c0-49.626-40.374-90-90-90s-90 40.374-90 90v302c0 33.084 26.916 60 60 60s60-26.916 60-60V180c0-16.542-13.458-30-30-30s-30 13.458-30 30v242h-30V180c0-33.084 26.916-60 60-60s60 26.916 60 60v242c0 49.626-40.374 90-90 90z"/>
    </symbol>
    
    <symbol id="comment" viewBox="-21 -47 682.6667 682">
      <path d="M552.0117-1.332H87.9883C39.4727-1.332 0 38.1406 0 86.6562V370.629c0 48.4219 39.3008 87.8242 87.6758 87.9883v128.871L272.8594 458.629h279.1523c48.5156 0 87.9883-39.4727 87.9883-88V86.6562c0-48.5156-39.4727-87.9882-87.9883-87.9882zm-83.3086 330.0117H171.297v-37.5H468.703zm0-80H171.297v-37.5H468.703zm0-80H171.297v-37.5H468.703zm0 0"/>
    </symbol>

    <symbol id="pencil" viewBox="0 0 492.4928 492">
      <path d="M304.1406 82.4727L33.1641 353.4687c-1.3633 1.3672-2.3477 3.0938-2.8164 4.9493L.3125 478.9727c-.8984 3.6289.168 7.4882 2.8164 10.1367 2.004 2.0039 4.7344 3.1133 7.5274 3.1133.8554 0 1.7304-.1055 2.582-.3204l120.5547-30.039c1.8789-.4688 3.586-1.4492 4.9492-2.8125l271-270.9766zm0 0M476.875 45.5234l-30.164-30.164c-20.1602-20.1602-55.297-20.1407-75.4337 0l-36.9492 36.9492 105.5977 105.5977 36.9492-36.9493c10.0703-10.0664 15.6172-23.4648 15.6172-37.7148s-5.5469-27.6484-15.6172-37.7188zm0 0"/>
    </symbol>
    
    <symbol id="doc" viewBox="0 0 512 512">
      <path d="M106 512h300c24.814 0 45-20.186 45-45V150H346c-24.814 0-45-20.186-45-45V0H106C81.186 0 61 20.186 61 45v422c0 24.814 20.186 45 45 45zm60-301h180c8.291 0 15 6.709 15 15s-6.709 15-15 15H166c-8.291 0-15-6.709-15-15s6.709-15 15-15zm0 60h180c8.291 0 15 6.709 15 15s-6.709 15-15 15H166c-8.291 0-15-6.709-15-15s6.709-15 15-15zm0 60h180c8.291 0 15 6.709 15 15s-6.709 15-15 15H166c-8.291 0-15-6.709-15-15s6.709-15 15-15zm0 60h120c8.291 0 15 6.709 15 15s-6.709 15-15 15H166c-8.291 0-15-6.709-15-15s6.709-15 15-15z"/>
      <path d="M346 120h96.211L331 8.789V105c0 8.276 6.724 15 15 15z"/>
    </symbol> 

    <symbol id="user" viewBox="0 0 24 24">
      <path d="M11.9998 0C5.3726 0 0 5.3727 0 11.9999 0 18.6269 5.3726 24 11.9998 24S24 18.6269 24 11.9999C24 5.3725 18.627 0 11.9998 0zm.0366 17.6612v-.0001H6.8372c0-3.7486 3.2922-3.7477 4.0228-4.7279l.0836-.4469c-1.0264-.5202-1.751-1.7743-1.751-3.241 0-1.9324 1.257-3.499 2.8072-3.499s2.8072 1.5667 2.8072 3.499c0 1.4542-.7117 2.7005-1.7245 3.2289l.0952.5079c.8016.9327 3.9843.9935 3.9843 4.6791h-5.1256z"/>
    </symbol> 

    <symbol id="group" viewBox="0 0 511.999 511.999">
      <path d="M438.09 273.32h-39.596c4.036 11.05 6.241 22.975 6.241 35.404v149.65c0 5.182-.902 10.156-2.543 14.782h65.461c24.453 0 44.346-19.894 44.346-44.346v-81.581c.001-40.753-33.155-73.909-73.909-73.909zM107.265 308.725c0-12.43 2.205-24.354 6.241-35.404H73.91c-40.754 0-73.91 33.156-73.91 73.91v81.581c0 24.452 19.893 44.346 44.346 44.346h65.462c-1.641-4.628-2.543-9.601-2.543-14.783v-149.65zM301.261 234.815h-90.522c-40.754 0-73.91 33.156-73.91 73.91v149.65c0 8.163 6.618 14.782 14.782 14.782h208.778c8.164 0 14.782-6.618 14.782-14.782v-149.65c0-40.754-33.156-73.91-73.91-73.91zM256 38.84c-49.012 0-88.886 39.874-88.886 88.887 0 33.245 18.349 62.28 45.447 77.524 12.853 7.23 27.671 11.362 43.439 11.362s30.586-4.132 43.439-11.362c27.099-15.244 45.447-44.28 45.447-77.524 0-49.012-39.874-88.887-88.886-88.887zM99.918 121.689c-36.655 0-66.475 29.82-66.475 66.475 0 36.655 29.82 66.475 66.475 66.475 9.298 0 18.152-1.926 26.195-5.388 13.906-5.987 25.372-16.585 32.467-29.86 4.98-9.317 7.813-19.946 7.813-31.227 0-36.654-29.82-66.475-66.475-66.475zM412.082 121.689c-36.655 0-66.475 29.82-66.475 66.475 0 11.282 2.833 21.911 7.813 31.227 7.095 13.276 18.561 23.874 32.467 29.86 8.043 3.462 16.897 5.388 26.195 5.388 36.655 0 66.475-29.82 66.475-66.475 0-36.655-29.82-66.475-66.475-66.475z"/>
    </symbol>

    <symbol id="tag" viewBox="0 -109 442.736 442">
      <path d="M442.7344 16.3672c0-8.836-7.1602-16-16-16H98l-98 112 98 112h328.7344c8.8398 0 16-7.164 16-16zm0 0"/>
    </symbol>    
  </defs>
</svg>